HIERARCHY
ROOT Hips
{
	OFFSET 0.000000 0.000000 0.000000
	CHANNELS 6 Xposition Yposition Zposition Xrotation Yrotation Zrotation
	JOINT LeftUpLeg_virtual
	{
		OFFSET 0.000000 0.000000 0.000000
		CHANNELS 3 Xrotation Yrotation Zrotation
		JOINT LeftUpLeg
		{
			OFFSET 11.394100 -6.187798 -0.413800
			CHANNELS 3 Xrotation Yrotation Zrotation
			JOINT LeftLeg
			{
				OFFSET 0.430247 -32.302673 3.732800
				CHANNELS 3 Xrotation Yrotation Zrotation
				JOINT LeftFoot
				{
					OFFSET -0.430247 -48.264931 -6.423300
					CHANNELS 3 Xrotation Yrotation Zrotation
					JOINT LeftToeBase
					{
						OFFSET 4.230900 -16.068199 23.438400
						CHANNELS 3 Xrotation Yrotation Zrotation
						JOINT LeftToe_End
						{
							OFFSET 4.510700 0.695400 19.974600
							CHANNELS 3 Xrotation Yrotation Zrotation
							End Site
							{
								OFFSET 0 0 0
							}
						}
					}
				}
			}
		}
	}
	JOINT RightUpLeg_virtual
	{
		OFFSET 0.000000 0.000000 0.000000
		CHANNELS 3 Xrotation Yrotation Zrotation
		JOINT RightUpLeg
		{
			OFFSET -11.333700 -6.187798 -0.413800
			CHANNELS 3 Xrotation Yrotation Zrotation
			JOINT RightLeg
			{
				OFFSET -0.430392 -32.302628 3.733000
				CHANNELS 3 Xrotation Yrotation Zrotation
				JOINT RightFoot
				{
					OFFSET 0.430392 -48.264973 -6.423500
					CHANNELS 3 Xrotation Yrotation Zrotation
					JOINT RightToeBase
					{
						OFFSET -4.230900 -16.068199 23.438400
						CHANNELS 3 Xrotation Yrotation Zrotation
						JOINT RightToe_End
						{
							OFFSET -4.510700 0.695400 19.974600
							CHANNELS 3 Xrotation Yrotation Zrotation
							End Site
							{
								OFFSET 0 0 0
							}
						}
					}
				}
			}
		}
	}
	JOINT Spine_virtual
	{
		OFFSET 0.000000 0.000000 0.000000
		CHANNELS 3 Xrotation Yrotation Zrotation
		JOINT Spine
		{
			OFFSET -0.002400 12.777504 0.315300
			CHANNELS 3 Xrotation Yrotation Zrotation
			JOINT Spine1
			{
				OFFSET -0.002067 5.816869 0.032633
				CHANNELS 3 Xrotation Yrotation Zrotation
				JOINT Spine1_split
				{
					OFFSET -0.002067 5.816869 0.032633
					CHANNELS 3 Xrotation Yrotation Zrotation
					JOINT Spine2
					{
						OFFSET -0.002067 5.816869 0.032633
						CHANNELS 3 Xrotation Yrotation Zrotation
						JOINT Neck_virtual
						{
							OFFSET 0.000000 0.000000 0.000000
							CHANNELS 3 Xrotation Yrotation Zrotation
							JOINT Neck
							{
								OFFSET -0.003700 21.199493 -0.826900
								CHANNELS 3 Xrotation Yrotation Zrotation
								JOINT Head
								{
									OFFSET 0.000000 20.442200 4.834800
									CHANNELS 3 Xrotation Yrotation Zrotation
									JOINT HeadTop_End
									{
										OFFSET 0.000000 34.668396 4.968400
										CHANNELS 3 Xrotation Yrotation Zrotation
										End Site
										{
											OFFSET 0 0 0
										}
									}
								}
							}
						}
						JOINT LeftShoulder_virtual
						{
							OFFSET 0.000000 0.000000 0.000000
							CHANNELS 3 Xrotation Yrotation Zrotation
							JOINT LeftShoulder
							{
								OFFSET 3.288150 8.794197 -1.372250
								CHANNELS 3 Xrotation Yrotation Zrotation
								JOINT LeftShoulder_split
								{
									OFFSET 3.288150 8.794197 -1.372250
									CHANNELS 3 Xrotation Yrotation Zrotation
									JOINT LeftArm
									{
										OFFSET 11.953299 -2.279007 -0.146200
										CHANNELS 3 Xrotation Yrotation Zrotation
										JOINT LeftForeArm
										{
											OFFSET 18.448900 0.000000 0.000000
											CHANNELS 3 Xrotation Yrotation Zrotation
											JOINT LeftHand
											{
												OFFSET 29.527798 0.000000 0.000000
												CHANNELS 3 Xrotation Yrotation Zrotation
												End Site
												{
													OFFSET 0 0 0
												}
											}
										}
									}
								}
							}
						}
						JOINT RightShoulder_virtual
						{
							OFFSET 0.000000 0.000000 0.000000
							CHANNELS 3 Xrotation Yrotation Zrotation
							JOINT RightShoulder
							{
								OFFSET -3.249400 8.794197 -1.372250
								CHANNELS 3 Xrotation Yrotation Zrotation
								JOINT RightShoulder_split
								{
									OFFSET -3.249400 8.794197 -1.372250
									CHANNELS 3 Xrotation Yrotation Zrotation
									JOINT RightArm
									{
										OFFSET -11.953299 -2.279007 -0.146200
										CHANNELS 3 Xrotation Yrotation Zrotation
										JOINT RightForeArm
										{
											OFFSET -18.448900 0.000000 0.000000
											CHANNELS 3 Xrotation Yrotation Zrotation
											JOINT RightHand
											{
												OFFSET -29.527802 0.000000 0.000000
												CHANNELS 3 Xrotation Yrotation Zrotation
												End Site
												{
													OFFSET 0 0 0
												}
											}
										}
									}
								}
							}
						}
					}
				}
			}
		}
	}
}
MOTION
Frames: 11
Frame Time: 0.03333333
-1.013058 90.615479 0.233391 0.000000 0.000000 0.000000 14.524995 -57.196790 13.318904 -47.753315 9.483228 26.120254 42.257219 -7.752655 -5.924238 2.215620 -3.017163 -2.488991 1.538275 0.026478 -0.421790 0.000000 0.000000 0.000000 15.500513 -57.684130 14.195980 -36.264213 -7.313957 -18.419897 47.605131 4.766522 -1.808096 -24.163608 -5.136660 10.028317 7.138206 0.266990 1.113070 0.000000 0.000000 0.000000 16.039746 -59.919119 13.876631 5.633571 1.149215 -3.217916 -4.394628 5.214565 -3.819844 0.857304 -2.315431 0.497713 0.000000 0.000000 0.000000 -2.506706 4.752715 -3.256572 -15.412648 7.857422 8.345181 3.519849 34.563646 2.172048 0.000000 0.000000 0.000000 -3.076692 5.121333 -3.743506 -29.516014 6.389341 6.322496 -7.239514 6.179636 -6.953582 32.879527 -10.249156 -42.400875 -24.327950 -85.696157 -24.481126 0.000000 0.000000 0.000000 -3.685615 4.389612 -3.690187 1.887705 16.415403 11.283556 -5.371598 0.754190 -1.153495 12.961162 17.321179 58.946206 5.979488 66.983604 -8.334612 0.000000 0.000000 0.000000 
-0.971475 90.640442 0.439716 0.000000 0.000000 0.000000 14.533133 -57.011029 13.225915 -47.928595 10.040132 26.391499 41.789905 -7.512339 -6.210630 1.974325 -3.126009 -2.342300 1.613386 -0.003926 -0.350194 0.000000 0.000000 0.000000 15.667447 -57.850015 14.194428 -35.975187 -7.284115 -18.333300 47.697728 4.750142 -1.806104 -24.483452 -5.205971 9.654473 7.386584 0.225094 1.222590 0.000000 0.000000 0.000000 16.390296 -59.976629 14.109486 5.649445 1.195894 -3.316719 -4.373184 5.227321 -3.886831 1.108664 -2.172839 0.446208 0.000000 0.000000 0.000000 -2.344212 4.818505 -3.364376 -14.870080 8.533597 8.090272 3.286208 34.431171 2.426116 0.000000 0.000000 0.000000 -2.777207 5.135844 -3.751377 -29.497070 5.866833 6.321243 -6.859540 5.202740 -6.462955 33.121025 -11.442430 -42.689041 -22.159009 -84.941230 -22.022970 0.000000 0.000000 0.000000 -3.545989 4.386068 -3.771444 1.932531 16.300407 11.618778 -6.074613 1.181888 -0.690549 13.780234 17.003763 58.789276 5.242534 66.867320 -7.612747 0.000000 0.000000 0.000000 
-0.926802 90.696686 0.527874 0.000000 0.000000 0.000000 14.536675 -57.142237 13.071930 -47.720148 10.748598 26.722768 40.956820 -7.233156 -6.459411 1.634045 -3.140914 -2.215160 1.848957 -0.057057 -0.424493 0.000000 0.000000 0.000000 15.702637 -58.006106 14.017645 -35.549352 -7.429975 -18.126593 47.714933 4.757785 -1.828170 -24.994954 -5.371563 9.284073 7.176321 0.149358 1.353001 0.000000 0.000000 0.000000 16.345225 -59.841692 14.049719 5.794255 1.281684 -3.413777 -4.347945 5.386018 -4.036870 1.186413 -2.037842 0.519751 0.000000 0.000000 0.000000 -2.245198 5.006496 -3.604271 -14.415186 9.277010 7.828740 2.770108 34.276772 2.879403 0.000000 0.000000 0.000000 -2.573832 5.340287 -3.856679 -29.460996 4.813101 6.019298 -6.179230 4.169195 -6.050361 33.450377 -12.901249 -42.731839 -16.128291 -82.864934 -15.695006 0.000000 0.000000 0.000000 -3.260045 4.515349 -3.977281 1.931052 15.911580 11.961892 -6.251226 1.350399 -0.646033 14.859731 17.711505 57.984993 4.056282 67.031470 -6.704844 0.000000 0.000000 0.000000 
-0.882755 90.744560 0.458324 0.000000 0.000000 0.000000 14.483659 -57.406736 12.854951 -47.260476 11.404354 27.020011 40.167461 -7.016760 -6.630808 1.271526 -3.094815 -2.130575 2.226405 -0.125510 -0.642905 0.000000 0.000000 0.000000 15.607401 -58.107240 13.750038 -35.150278 -7.665565 -17.923041 47.464426 4.807906 -1.863289 -25.575117 -5.577361 9.042888 6.622945 0.044371 1.478147 0.000000 0.000000 0.000000 16.006842 -59.458941 13.770005 6.033448 1.321984 -3.451090 -4.306955 5.643306 -4.203797 0.937315 -1.855457 0.612972 0.000000 0.000000 0.000000 -2.224795 5.243164 -3.859570 -14.175225 10.111479 7.580328 2.227183 34.236460 3.210879 0.000000 0.000000 0.000000 -2.433818 5.632870 -4.008524 -29.402612 3.465724 5.467714 -5.697022 3.369889 -5.981120 33.652806 -14.290009 -42.770136 -11.319352 -79.684279 -10.557262 0.000000 0.000000 0.000000 -2.859731 4.736218 -4.232237 1.903208 15.350659 12.255219 -6.150411 1.278960 -0.834772 16.208923 19.186015 56.418824 2.590427 67.394808 -5.774597 0.000000 0.000000 0.000000 
-0.872803 90.814156 0.245277 0.000000 0.000000 0.000000 14.262778 -57.674855 12.519877 -46.771841 11.847916 27.259282 39.733495 -6.891545 -6.758474 1.062951 -3.046934 -2.117508 2.642383 -0.198710 -0.949863 0.000000 0.000000 0.000000 15.253841 -58.066717 13.375921 -34.794988 -7.904226 -17.783174 46.932805 4.921680 -1.897132 -26.016752 -5.732819 9.052772 5.984782 -0.073039 1.585633 0.000000 0.000000 0.000000 15.437168 -58.802779 13.279755 6.314474 1.233810 -3.389704 -4.235772 5.924229 -4.329018 0.735290 -1.746880 0.394975 0.000000 0.000000 0.000000 -2.261889 5.441819 -4.003749 -13.948603 11.100276 7.341154 1.869159 34.441663 3.136271 0.000000 0.000000 0.000000 -2.370221 5.900582 -4.139400 -29.337377 2.027244 4.683035 -5.802885 3.045538 -6.363386 33.740499 -15.404213 -42.973334 -8.766162 -76.125286 -7.616392 0.000000 0.000000 0.000000 -2.434274 4.956799 -4.431043 1.906630 14.775820 12.452111 -5.882211 1.149423 -1.066596 17.826129 21.201713 54.077470 0.988721 67.811197 -4.859593 0.000000 0.000000 0.000000 
-0.930999 90.854370 -0.064461 0.000000 0.000000 0.000000 13.767244 -57.752289 11.999065 -46.544567 11.984628 27.506649 39.796831 -6.839842 -6.910046 1.138120 -3.067613 -2.149849 2.850906 -0.275816 -1.239625 0.000000 0.000000 0.000000 14.647737 -57.967242 12.874062 -34.440539 -8.120242 -17.699114 46.259925 5.042203 -1.886195 -26.281214 -5.823511 9.264801 5.520179 -0.188153 1.695916 0.000000 0.000000 0.000000 14.711521 -57.989932 12.647338 6.561437 0.940032 -3.206966 -4.180147 6.151822 -4.381237 0.758992 -1.455613 0.103903 0.000000 0.000000 0.000000 -2.359348 5.551121 -3.965034 -13.584824 12.257370 7.147401 1.943801 34.913239 2.500418 0.000000 0.000000 0.000000 -2.326928 6.083802 -4.201024 -29.276008 0.671332 3.794083 -6.266596 3.145840 -7.089035 33.887673 -16.072241 -43.366268 -7.522695 -72.993139 -5.994349 0.000000 0.000000 0.000000 -2.018067 5.131615 -4.508665 1.988457 14.359035 12.454217 -5.549738 1.125503 -1.186374 19.700250 23.552745 51.066179 -0.599592 68.163840 -3.981583 0.000000 0.000000 0.000000 
-1.119959 90.831177 -0.322575 0.000000 0.000000 0.000000 13.050912 -57.552035 11.292925 -46.718497 11.889301 27.834493 40.322490 -6.675155 -7.147978 1.480352 -3.153982 -2.069726 2.890822 -0.363995 -1.475222 0.000000 0.000000 0.000000 13.805735 -57.844093 12.232757 -33.986594 -8.309770 -17.637394 45.634956 5.096942 -1.810674 -26.568140 -5.881572 9.459642 5.363193 -0.266125 1.832514 0.000000 0.000000 0.000000 13.943210 -57.188252 11.912851 6.745670 0.522056 -2.932575 -4.093477 6.340172 -4.336249 0.948981 -1.099278 -0.036287 0.000000 0.000000 0.000000 -2.500000 5.616542 -3.700764 -13.052492 13.551983 7.076990 2.339693 35.560724 1.458797 0.000000 0.000000 0.000000 -2.262340 6.207687 -4.125580 -29.247529 -0.542311 3.076491 -7.096885 3.347385 -8.216656 34.341112 -16.112881 -43.858987 -7.316221 -70.794897 -5.412031 0.000000 0.000000 0.000000 -1.727951 5.246215 -4.439142 2.098301 14.187394 12.396869 -5.316808 1.109608 -1.065320 21.681035 26.108379 47.582448 -2.163848 68.113324 -3.006964 0.000000 0.000000 0.000000 
-1.437434 90.734299 -0.491173 0.000000 0.000000 0.000000 12.183247 -57.130885 10.411034 -47.340051 11.604415 28.290519 41.127817 -6.311319 -7.460112 2.033520 -3.337810 -1.807225 2.833698 -0.471849 -1.590272 0.000000 0.000000 0.000000 12.819894 -57.624086 11.410831 -33.396719 -8.483339 -17.559218 45.168311 5.091711 -1.677460 -27.083899 -5.886641 9.510507 5.451748 -0.278155 1.975920 0.000000 0.000000 0.000000 13.208758 -56.442812 11.027558 6.904031 0.131327 -2.586370 -3.973315 6.569704 -4.219516 1.108503 -1.063392 0.001561 0.000000 0.000000 0.000000 -2.590800 5.734323 -3.281994 -12.319636 14.811453 7.199361 2.883967 36.036502 0.287069 0.000000 0.000000 0.000000 -2.242149 6.385434 -3.921478 -29.324051 -1.631698 2.640184 -8.005409 3.706865 -9.207355 35.098693 -15.715070 -44.232527 -7.595002 -69.717763 -5.401333 0.000000 0.000000 0.000000 -1.570312 5.387225 -4.270601 2.188796 14.207838 12.384552 -5.251215 1.017366 -0.827886 23.534189 28.698969 43.916050 -3.620349 67.045314 -1.935378 0.000000 0.000000 0.000000 
-1.882945 90.522316 -0.469604 0.000000 0.000000 0.000000 11.216551 -56.503068 9.395446 -48.273308 11.155240 28.820192 41.951439 -5.827641 -7.795648 2.640495 -3.660073 -1.504279 2.693048 -0.594899 -1.544742 0.000000 0.000000 0.000000 11.738757 -57.166050 10.379382 -32.730724 -8.539213 -17.513764 45.026079 5.123023 -1.530629 -27.765035 -5.854555 9.501707 5.751866 -0.200675 2.069755 0.000000 0.000000 0.000000 12.542558 -55.863475 10.043157 7.074091 -0.082238 -2.220951 -3.806572 6.926250 -4.076908 1.268611 -1.209516 0.268004 0.000000 0.000000 0.000000 -2.582353 6.012946 -2.844408 -11.619997 15.845047 7.571326 3.362415 35.938174 -0.591796 0.000000 0.000000 0.000000 -2.271794 6.762078 -3.678966 -29.557152 -2.703261 2.597352 -8.509798 4.091832 -9.801552 35.899416 -15.201868 -44.313410 -7.945895 -69.472484 -5.610157 0.000000 0.000000 0.000000 -1.465190 5.669768 -4.093106 2.198634 14.306222 12.550407 -5.459306 0.670193 -0.807711 24.996486 31.123512 40.431547 -4.669301 64.430547 -1.010808 0.000000 0.000000 0.000000 
-2.431784 90.233597 -0.241150 0.000000 0.000000 0.000000 10.201108 -55.665898 8.308338 -49.191333 10.581974 29.268641 42.628604 -5.254711 -8.115619 3.018496 -4.060699 -1.171958 2.624303 -0.739685 -1.429759 0.000000 0.000000 0.000000 10.651595 -56.463217 9.281286 -32.083673 -8.401729 -17.567535 45.301612 5.270577 -1.395804 -28.169650 -5.885370 9.722390 6.109786 -0.042479 2.061662 0.000000 0.000000 0.000000 11.935694 -55.390543 9.003273 7.275659 0.023852 -1.927533 -3.554170 7.457608 -3.959620 1.293275 -1.667655 0.578072 0.000000 0.000000 0.000000 -2.418769 6.496250 -2.507812 -11.193728 16.436495 8.063639 3.479828 34.859400 -0.785422 0.000000 0.000000 0.000000 -2.305474 7.365059 -3.476074 -29.911342 -3.900111 2.898675 -8.571643 4.611756 -10.272539 36.259439 -15.084434 -43.945932 -8.056113 -69.331222 -5.703914 0.000000 0.000000 0.000000 -1.365031 6.134899 -3.979467 2.086192 14.444940 13.003820 -5.755570 -0.151397 -0.966381 25.657867 33.345004 37.780846 -5.021197 59.722354 -0.492283 0.000000 0.000000 0.000000 
-3.017606 89.934464 0.219746 0.000000 0.000000 0.000000 9.159229 -54.479727 7.244498 -49.835273 9.927765 29.416170 43.108391 -4.790845 -8.313379 3.086335 -4.606792 -0.963543 2.532695 -0.868583 -1.289521 0.000000 0.000000 0.000000 9.472847 -55.517960 8.151512 -31.455996 -8.113779 -17.772746 45.914133 5.548983 -1.286840 -28.015110 -6.120615 10.459872 6.256113 0.142411 1.943727 0.000000 0.000000 0.000000 11.293183 -54.824023 7.987097 7.559687 0.370524 -1.758393 -3.275326 7.987245 -3.908583 1.144262 -1.862921 1.044894 0.000000 0.000000 0.000000 -2.134412 7.009433 -2.354065 -11.173083 16.473554 8.611940 3.253959 32.493840 -0.194347 0.000000 0.000000 0.000000 -2.314354 7.992520 -3.393293 -30.346302 -5.202885 3.281284 -8.204678 5.050825 -10.361172 35.924988 -15.659740 -43.003079 -7.211611 -68.677176 -5.058152 0.000000 0.000000 0.000000 -1.186288 6.667628 -3.950606 1.893521 14.493144 13.562170 -6.112811 -1.497921 -1.047242 25.553911 35.434260 36.402340 -4.708163 53.540128 -0.285670 0.000000 0.000000 0.000000 
